<?xml version="1.0" standalone="no"?>
<!DOCTYPE svg PUBLIC "-//W3C//DTD SVG 20010904//EN"
 "http://www.w3.org/TR/2001/REC-SVG-20010904/DTD/svg10.dtd">
<svg version="1.0" xmlns="http://www.w3.org/2000/svg"
 width="750.000000pt" height="750.000000pt" viewBox="0 0 750.000000 750.000000"
 preserveAspectRatio="xMidYMid meet">

<g transform="translate(0.000000,750.000000) scale(0.100000,-0.100000)"
fill="#000000" stroke="none">
<path d="M3540 7214 c-215 -41 -306 -70 -455 -146 -121 -61 -223 -130 -309
-210 -74 -67 -177 -192 -206 -248 l-19 -38 -68 20 c-208 58 -505 37 -722 -51
-285 -116 -526 -401 -598 -707 -14 -61 -18 -116 -17 -239 0 -144 3 -169 27
-248 86 -281 279 -519 527 -650 82 -43 194 -81 288 -97 l72 -13 0 -254 c0
-207 3 -259 15 -283 29 -56 84 -65 168 -26 264 123 553 197 947 243 225 26
904 26 1105 0 387 -50 630 -111 872 -217 111 -50 157 -59 193 -40 41 22 45 46
50 314 l5 259 95 22 c168 38 321 112 449 217 165 135 312 378 358 593 19 88
21 257 4 355 -62 355 -319 661 -664 790 -136 51 -223 64 -412 63 -154 0 -190
-3 -249 -21 -38 -12 -70 -21 -71 -19 -1 1 -15 25 -30 52 -45 79 -254 281 -370
358 -148 98 -264 147 -455 194 -92 22 -130 26 -305 29 -110 1 -211 0 -225 -2z
m380 -234 c271 -42 486 -143 646 -305 212 -214 275 -453 179 -675 -38 -87 -38
-140 -1 -179 32 -34 65 -42 112 -30 48 14 76 54 115 165 33 96 34 104 34 252
l0 152 30 10 c52 16 157 30 235 30 235 0 451 -89 612 -253 116 -118 174 -225
209 -389 84 -391 -165 -790 -571 -916 -117 -37 -110 -36 -110 -7 0 68 -57 135
-116 135 -42 0 -90 -40 -104 -88 -7 -24 -10 -135 -8 -315 2 -152 -1 -277 -5
-277 -4 0 -24 7 -45 16 -112 47 -366 113 -572 148 -177 30 -290 41 -573 57
-384 22 -925 -16 -1242 -87 -157 -36 -346 -91 -412 -120 -17 -8 -34 -14 -37
-14 -3 0 -6 128 -6 285 0 310 -3 333 -55 373 -65 51 -159 3 -173 -89 l-7 -47
-90 27 c-214 64 -381 194 -490 379 -68 116 -97 214 -102 352 -9 199 32 337
145 496 163 230 478 360 783 325 128 -14 179 -29 178 -50 0 -9 -4 -41 -9 -71
-21 -145 53 -418 126 -467 29 -19 91 -21 124 -3 25 14 50 61 50 97 0 15 -11
51 -24 79 -30 64 -56 178 -56 242 0 113 59 267 143 372 79 100 244 228 352
275 147 64 260 98 370 114 85 12 288 13 365 1z"/>
<path d="M2633 3936 c-28 -6 -55 -14 -59 -18 -4 -5 -14 -8 -21 -8 -8 0 -43
-14 -78 -31 -144 -69 -263 -181 -344 -322 -30 -52 -35 -57 -67 -57 -76 0 -134
-55 -134 -127 0 -55 27 -97 74 -114 l33 -12 7 -92 c8 -123 27 -192 83 -305 40
-81 62 -110 143 -190 80 -81 110 -103 193 -145 96 -48 97 -49 97 -85 0 -64 31
-222 61 -314 52 -157 119 -266 271 -440 108 -126 178 -283 178 -403 0 -80 25
-146 70 -187 l40 -36 548 0 c531 0 548 1 580 20 43 27 82 108 82 173 0 27 9
85 21 129 32 127 65 183 194 333 182 210 269 404 297 658 l12 108 86 44 c258
134 420 389 420 662 0 60 2 64 28 75 44 19 71 49 83 90 20 76 -50 158 -135
158 -40 0 -42 2 -73 58 -95 172 -257 302 -453 364 -66 20 -95 23 -235 23 -151
0 -164 -2 -240 -29 -167 -61 -299 -164 -393 -309 -28 -42 -52 -82 -54 -88 -2
-7 -23 -5 -63 7 -70 21 -215 23 -285 5 -89 -24 -82 -26 -119 39 -99 174 -277
312 -467 360 -88 23 -291 26 -381 6z m360 -229 c144 -52 241 -137 306 -267
160 -319 -16 -694 -363 -774 -192 -45 -387 13 -521 155 -74 78 -106 136 -135
240 -44 161 -10 329 97 469 41 53 81 87 149 128 50 29 155 67 209 76 64 9 195
-4 258 -27z m1825 2 c87 -29 144 -63 210 -124 140 -130 201 -335 157 -524 -46
-192 -206 -349 -405 -395 -280 -66 -563 99 -650 380 -71 230 37 501 244 617
52 29 155 64 206 71 63 8 174 -4 238 -25z m-987 -385 l58 -16 -1 -102 c-1
-132 21 -230 76 -341 126 -253 360 -412 637 -432 l89 -6 -6 -41 c-22 -155 -70
-297 -133 -393 -21 -32 -74 -102 -119 -156 -165 -198 -217 -303 -246 -492
l-12 -80 -439 0 -440 0 -16 97 c-34 195 -84 293 -264 509 -126 151 -209 332
-222 483 l-6 73 80 7 c196 16 363 96 499 238 144 150 214 326 214 537 0 60 4
92 12 97 19 12 109 32 147 33 19 1 61 -6 92 -15z"/>
<path d="M3195 914 c-43 -46 -44 -138 -4 -186 l21 -23 519 -3 520 -3 30 30
c26 26 29 36 29 91 0 55 -3 65 -29 91 l-29 29 -517 0 -516 0 -24 -26z"/>
<path d="M3383 580 c-12 -5 -29 -20 -38 -34 -68 -103 164 -255 389 -256 172 0
345 71 392 162 19 38 12 88 -17 114 -20 18 -44 19 -363 21 -187 1 -351 -2
-363 -7z"/>
</g>
</svg>
